# xmcd
#
# Track frame offsets:
#	150
#	28082
#	47432
#	67027
#
# Disc length: 1153 seconds
#
# Revision: 0
# Processed by: cddbd v1.5.1PL0 Copyright (c) Steve Scherf et al.
# Submitted via: audiograbber 1.83.01
#
DISCID=2f047f04
DTITLE=DJ Dero - Do the rave stomp (M-CD)
DYEAR=1992
DGENRE=Dance
TTITLE0=Do the rave stomp (Ana Paula Mix)
TTITLE1=Aurora
TTITLE2=Do the rave stomp (Radio)
TTITLE3=XTA-ASYS
EXTD=
EXTT0=
EXTT1=
EXTT2=
EXTT3=
PLAYORDER=
